<svg id="Layer_1" data-name="Layer 1" xmlns="http://www.w3.org/2000/svg" viewBox="0 0 47.47 47.47"><defs><style>.cls-1{fill:#252c3a;}</style></defs><g id="Forma_1" data-name="Forma 1"><path class="cls-1" d="M14.07,29.25,5.68,43.53a1,1,0,0,0-.14.5,1,1,0,0,0,1,1H13.4V43H8.26l7.52-12.79Zm32.54-5H31.2a4,4,0,0,0-4,3.95V39.69l-8.9-13.76V19.07a14.85,14.85,0,0,1,3.22-1.26,1,1,0,0,0,.74-.95V3.48h4.94V16.63a1,1,0,0,0,.81,1,14.83,14.83,0,0,1,8.79,5.29l1.54-1.24a16.74,16.74,0,0,0-9.16-5.82V2.49a1,1,0,0,0-1-1H21.31a1,1,0,0,0-1,1V16.11a18.33,18.33,0,0,0-2,.76v-3.5a1,1,0,0,0-1-1H12.41a1,1,0,0,0-1,1V26L2.21,41.62A4.87,4.87,0,0,0,6.41,49h18A4.79,4.79,0,0,0,27,48.2,4.44,4.44,0,0,0,28.27,47a5,5,0,0,0,3.92,2h8.9A4.94,4.94,0,0,0,46,44V30.59l2.27-2.27a2.35,2.35,0,0,0,.7-1.68A2.39,2.39,0,0,0,46.61,24.25ZM24.42,47h-18a2.89,2.89,0,0,1-2.5-4.36l9.35-15.9a1,1,0,0,0,.14-.5V14.36h3V26.23a1,1,0,0,0,.15.53L26.79,42.63a2.79,2.79,0,0,1,.45,1.53A2.82,2.82,0,0,1,24.42,47ZM46.9,26.93l-2.55,2.55a1,1,0,0,0-.29.7V44a3,3,0,0,1-3,3h-8.9a3,3,0,0,1-3-3V28.2a2,2,0,0,1,2-2H46.61a.38.38,0,0,1,.29.12A.41.41,0,0,1,46.9,26.93ZM40.1,43h-3v2h4a1,1,0,0,0,1-1V30.18h-2Zm0-24.23a3.46,3.46,0,1,0,3.46-3.46A3.46,3.46,0,0,0,40.1,18.81Zm3.46-1.48a1.48,1.48,0,1,1-1.48,1.48A1.48,1.48,0,0,1,43.56,17.33Zm-3.46-3a3,3,0,1,0-3-3A3,3,0,0,0,40.1,14.36Zm0-4a1,1,0,1,1-1,1A1,1,0,0,1,40.1,10.4ZM5,16.34a3.47,3.47,0,1,0-3.46-3.46A3.46,3.46,0,0,0,5,16.34Zm0-4.95a1.49,1.49,0,1,1-1.48,1.49A1.49,1.49,0,0,1,5,11.39Zm4.45-3a3,3,0,1,0-3-3A3,3,0,0,0,9.44,8.43Zm0-4a1,1,0,1,1-1,1A1,1,0,0,1,9.44,4.47ZM31.2,32.16h3v-2h-3Zm2,2h-2v2h2Zm-2,5.93h3v-2h-3Zm0,4h2v-2h-2ZM3.51,21.28h2v-2h-2Zm3,4.95h2v-2h-2Zm18.79,2h-2v2h2Zm-2-3.95h-2v2h2Zm-1-4h-2v2h2ZM21.31,44h2v-2h-2Zm-3-4h2v-2h-2Z" transform="translate(-1.53 -1.5)"/></g></svg>