<svg id="Layer_1" data-name="Layer 1" xmlns="http://www.w3.org/2000/svg" viewBox="0 0 47.56 47.01"><defs><style>.cls-1{fill:#252c3a;}</style></defs><g id="Forma_1" data-name="Forma 1"><path class="cls-1" d="M39.39,20.79a2.35,2.35,0,0,0-2.19,1.57H32.38V19.23H35.5a.77.77,0,0,0,.77-.79V15.17a2.35,2.35,0,1,0-3-1.43,2.38,2.38,0,0,0,1.43,1.43v2.49H32.38V16.09a.78.78,0,0,0-.78-.78H30V11.25a2.34,2.34,0,1,0-1.56,0v4.06H25.36V2.81A.78.78,0,0,0,24.58,2h0C15,2,7.43,9,7.43,18c0,4.24,1.68,9.86,4.37,14.65.49.86,1.12,1.77,1.79,2.73,1.41,2,3,4.3,3.16,6.28a2.26,2.26,0,0,0-.94,1.86,2.41,2.41,0,0,0,.52,1.46,2.43,2.43,0,0,0-.72,1.73A2.35,2.35,0,0,0,18,49H31.21a2.36,2.36,0,0,0,2.34-2.38v0a2.34,2.34,0,0,0-.72-1.69,2.48,2.48,0,0,0,.52-1.5,2.24,2.24,0,0,0-2.24-2.24H25.36V26.27h1.56v2.35a.78.78,0,0,0,.78.79H30v.92a2.32,2.32,0,1,0,1.56,0V28.62a.78.78,0,0,0-.78-.78H28.48V26.27H31.6a.78.78,0,0,0,.78-.78V23.93H37.2a2.34,2.34,0,1,0,4.4-1.58A2.36,2.36,0,0,0,39.39,20.79ZM35.5,12.18a.79.79,0,1,1-.78.78A.77.77,0,0,1,35.5,12.18ZM14.87,34.43c-.65-.93-1.26-1.8-1.71-2.6C10.63,27.32,9,21.88,9,18,9,10.14,15.43,4,23.8,3.61V9.08l-.64.06a.79.79,0,0,0-.67.62l-.24,1.13-.58.16-.78-.87A.78.78,0,0,0,20,10a11.84,11.84,0,0,0-2.45,1.44.77.77,0,0,0-.27.87l.36,1.1c-.15.14-.29.28-.43.43l-1.09-.36a.78.78,0,0,0-.87.27,11.69,11.69,0,0,0-1.43,2.47.79.79,0,0,0,.2.89l.86.78a5.47,5.47,0,0,0-.15.58l-1.22.24a.78.78,0,0,0-.62.77v2.67a.79.79,0,0,0,.62.77l1.22.24c0,.19.09.39.15.58L14,24.5a.78.78,0,0,0-.2.89,11.69,11.69,0,0,0,1.43,2.47.8.8,0,0,0,.87.27l1.09-.36c.14.15.28.29.43.43l-.36,1.09a.77.77,0,0,0,.27.87A11.84,11.84,0,0,0,20,31.6a.78.78,0,0,0,.89-.2l.78-.87c.19.06.39.12.58.16l.24,1.14a.79.79,0,0,0,.67.61l.64.07v8.67H18.28C18,38.87,16.33,36.52,14.87,34.43Zm2.69-13.64a7,7,0,0,0,6.24,7v2.7l-.13-.62a.78.78,0,0,0-.62-.61,8,8,0,0,1-1.36-.37.78.78,0,0,0-.26,0,.77.77,0,0,0-.59.26l-.73.82a12.38,12.38,0,0,1-1.17-.69l.34-1a.79.79,0,0,0-.24-.84,9.44,9.44,0,0,1-1-1,.78.78,0,0,0-.84-.24l-1,.34a12.55,12.55,0,0,1-.69-1.18l.82-.73a.8.8,0,0,0,.22-.85,8.16,8.16,0,0,1-.37-1.37.8.8,0,0,0-.61-.63l-1.09-.21V20.1l1.09-.22a.78.78,0,0,0,.61-.63,8,8,0,0,1,.37-1.36A.8.8,0,0,0,16.3,17l-.82-.74a12.38,12.38,0,0,1,.69-1.17l1,.34a.8.8,0,0,0,.84-.24,9.54,9.54,0,0,1,1-1,.78.78,0,0,0,.24-.84l-.34-1a9.2,9.2,0,0,1,1.17-.69l.73.82a.78.78,0,0,0,.85.21,7.78,7.78,0,0,1,1.36-.36.78.78,0,0,0,.62-.61l.13-.62v2.69A7.05,7.05,0,0,0,17.56,20.79Zm6.24-5.42V26.21a5.48,5.48,0,0,1,0-10.84ZM32,46.66a.78.78,0,0,1-.78.78H18a.8.8,0,0,1-.78-.81v0a.78.78,0,0,1,.78-.79H31.21a.79.79,0,0,1,.78.81Zm-1-3.91h0a.7.7,0,0,1,.77.64.25.25,0,0,1,0,.08.78.78,0,0,1-.78.79H18.15a.8.8,0,0,1-.78-.81v0a.72.72,0,0,1,.74-.68H31Zm-.19-11a.78.78,0,1,1-.78.78A.78.78,0,0,1,30.82,31.76ZM29.26,8.26a.79.79,0,1,1-.78.79A.78.78,0,0,1,29.26,8.26Zm1.56,16.45H25.36V16.88h5.46Zm8.57-.78a.79.79,0,0,1-.78-.79.78.78,0,0,1,1.56,0A.8.8,0,0,1,39.39,23.93Zm-8,15.42,1.45.58a12,12,0,0,1,.64-1.35l-1.36-.76A12.6,12.6,0,0,0,31.37,39.35ZM33,36.41l1.31.85c.28-.44.58-.87.87-1.3l-1.28-.9C33.55,35.5,33.24,36,33,36.41Zm1.81-2.65,1.28.89c.33-.47.63-.92.91-1.36l-1.32-.83C35.36,32.88,35.07,33.31,34.76,33.76Zm1.63-2.64,1.37.74c.26-.48.5-1,.74-1.46l-1.41-.67C36.87,30.2,36.63,30.66,36.39,31.12Zm1.34-2.82,1.43.62c.22-.5.42-1,.61-1.51l-1.46-.56C38.13,27.34,37.93,27.82,37.73,28.3Zm2.44-10.49V18q0,.66-.06,1.38l1.56.13c0-.52.06-1,.06-1.51v-.16Zm-.09-1.51,1.54-.18a13.41,13.41,0,0,0-.29-1.66l-1.51.36A14.77,14.77,0,0,1,40.08,16.3Zm-.69-2.93,1.47-.52a14.08,14.08,0,0,0-.65-1.55l-1.4.68A12,12,0,0,1,39.39,13.37Zm-1.31-2.7,1.32-.84a16.17,16.17,0,0,0-1-1.37l-1.22,1C37.52,9.83,37.81,10.24,38.08,10.67ZM37.32,7.2a16.46,16.46,0,0,0-1.23-1.13l-1,1.21a13.41,13.41,0,0,1,1.11,1ZM34.76,5.07c-.46-.31-.94-.6-1.42-.87l-.75,1.38c.45.24.88.51,1.3.79ZM31.84,3.48c-.5-.21-1-.41-1.56-.58l-.47,1.5c.48.15,1,.33,1.42.52Zm-3.16-1c-.54-.12-1.09-.21-1.64-.28l-.19,1.55A15,15,0,0,1,28.34,4ZM4.31,44.28H2.75v1.57H4.31ZM2.75,49H4.31V47.42H2.75Zm1.56-1.56H5.87V45.85H4.31ZM1.19,45.85v1.57H2.75V45.85ZM47.19,2H45.63V3.57h1.56ZM45.63,6.7h1.56V5.13H45.63Zm1.56-3.13V5.13h1.56V3.57Zm-3.12,0V5.13h1.56V3.57Z" transform="translate(-1.19 -2)"/></g></svg>