<svg id="Layer_1" data-name="Layer 1" xmlns="http://www.w3.org/2000/svg" viewBox="0 0 48.54 48.54"><defs><style>.cls-1{fill:#252c3a;}</style></defs><g id="Forma_1" data-name="Forma 1"><path class="cls-1" d="M48.23,7.88,42,1.68a2.31,2.31,0,0,0-3.28,0L27.06,13.36a.74.74,0,0,0,0,1.06.75.75,0,0,0,1.06,0L39.8,2.74a.8.8,0,0,1,.58-.24.78.78,0,0,1,.58.24l6.21,6.2a.84.84,0,0,1,.24.58.83.83,0,0,1-.24.58l-1.53,1.53-4-4a.74.74,0,0,0-1.06,0,.75.75,0,0,0,0,1.06l4,4-1.74,1.74-1.75-1.76A.75.75,0,1,0,40,13.73l1.76,1.76L40,17.23l-1.75-1.76a.75.75,0,1,0-1.06,1.06L39,18.29,37.25,20l-4-4a.75.75,0,0,0-1,1.06l4,4-1.74,1.75-1.76-1.76a.75.75,0,0,0-1.06,1.06l1.76,1.75-1.48,1.48L24.55,18l1.37-1.37a.75.75,0,1,0-1.06-1.06l-1.37,1.37L9.67,3.11a5.09,5.09,0,0,0-7.2,7.2L16.29,24.13,1,39.38a2.33,2.33,0,0,0,0,3.28l6.21,6.2a2.32,2.32,0,0,0,3.28,0L25.78,33.61l1.08,1.09a.75.75,0,0,0,1.06-1.06l-1.5-1.5a.64.64,0,0,0-.1-.13l-.13-.1L10,15.67l2-2,1.25,1.25a.77.77,0,0,0,.53.22.79.79,0,0,0,.53-.22.75.75,0,0,0,0-1.06L13,12.6l2-2L23,18.52h0l8.35,8.35a.8.8,0,0,0,.15.15L42.58,38.14l-2,2L29.35,28.93l0,0-4.47-4.48,0,0-7.9-7.9a.75.75,0,1,0-1.06,1.06L39.51,41.21l-2,2L30.38,36.1a.74.74,0,0,0-1.06,0,.75.75,0,0,0,0,1.06L37,44.81a.63.63,0,0,0,.26.16l9.05,3.52a1.32,1.32,0,0,0,.44.08,1.18,1.18,0,0,0,.86-.36,1.21,1.21,0,0,0,.27-1.3l-3.52-9a.56.56,0,0,0-.17-.26L33,26.42,48.23,11.16A2.33,2.33,0,0,0,48.23,7.88ZM24.72,32.55,23.25,34l-1.76-1.75a.75.75,0,1,0-1.06,1.06l1.76,1.75-1.74,1.74-4-4a.75.75,0,0,0-1.06,0,.74.74,0,0,0,0,1.06l4,4-1.74,1.74-1.76-1.75a.75.75,0,1,0-1.06,1.06l1.76,1.75-1.74,1.74-1.76-1.75A.75.75,0,0,0,12,41.73l1.76,1.75-1.74,1.74-4-4A.75.75,0,0,0,7,42.29l4,4L9.47,47.81a.84.84,0,0,1-.58.24.83.83,0,0,1-.58-.24L2.1,41.6a.82.82,0,0,1,0-1.16L17.35,25.19ZM3.53,9.25A3.59,3.59,0,0,1,8.61,4.17L11,6.54,5.9,11.62Zm7.91,2.82h0L8.9,14.61,7,12.68,12,7.6,14,9.54ZM46.22,46.86,38.84,44l4.51-4.51Z" transform="translate(-0.36 -1)"/></g></svg>