<svg id="Layer_1" data-name="Layer 1" xmlns="http://www.w3.org/2000/svg" viewBox="0 0 200 230"><defs><style>.cls-1{fill:#f8cf60;}.cls-2{fill:#2b282d;}.cls-3{fill:#fefefe;}.cls-4{fill:#f26a7e;}.cls-5{fill:#83b4a4;}.cls-6{fill:#fbefe2;}.cls-7{fill:#9dbefd;}.cls-8{fill:#faefe2;}.cls-9{fill:#f9ede0;}.cls-10{fill:#2b292d;}.cls-11{fill:#9ebefe;}.cls-12{fill:#f8efe2;}.cls-13{fill:#29272b;}.cls-14{fill:#f26b7f;}.cls-15{fill:#74ae9e;}.cls-16{fill:#514f52;}.cls-17{fill:#9fbffd;}.cls-18{fill:#f7cf61;}.cls-19{fill:#9fbffe;}.cls-20{fill:#f36b7f;}.cls-21{fill:#ef5970;}.cls-22{fill:#f55e76;}.cls-23{fill:#f6cf60;}.cls-24{fill:#f8d161;}.cls-25{fill:#4a3339;}.cls-26{fill:#3e3d40;}.cls-27{fill:#363842;}.cls-28{fill:#4f3e50;}.cls-29{fill:#84b8a8;}.cls-30{fill:#030104;}.cls-31{fill:#473f35;}.cls-32{fill:#e5536a;}.cls-33{fill:#673c45;}.cls-34{fill:#4b494c;}.cls-35{fill:#373539;}.cls-36{fill:#4d4b4e;}.cls-37{fill:#59585b;}.cls-38{fill:#626063;}.cls-39{fill:#5a465a;}.cls-40{fill:#48464a;}.cls-41{fill:#1a151c;}.cls-42{fill:#553a54;}.cls-43{fill:#554e55;}.cls-44{fill:#514f53;}.cls-45{fill:#3c3a3e;}.cls-46{fill:#6f5f3e;}.cls-47{fill:#faf0e3;}.cls-48{fill:#f9f9fa;}.cls-49{fill:#1c171d;}.cls-50{fill:#f1607c;}.cls-51{fill:#67a694;}.cls-52{fill:#5eb7a1;}.cls-53{fill:#484649;}.cls-54{fill:#4d5569;}.cls-55{fill:#3c3d46;}.cls-56{fill:#fdfdfd;}.cls-57{fill:#fcfcfc;}.cls-58{fill:#5a585b;}.cls-59{fill:#3b393d;}</style></defs><path class="cls-1" d="M13.34,165.62l-.06-20.81c1.4-1.49,3.28-1.18,5-1.17,27.91.09,55.81-.25,83.72-.18a13.67,13.67,0,0,1,5.28.58c2,1.55.75,2.55-.61,3.54-5,1.36-10.1.6-15.15.77-2.75.09-5.5.13-8.24,0-3.42-.17-4.58,1.3-4.52,4.52.23,11.35-1.29,9.69,10,9.94,3.37.07,6.87-.79,10.1.95.63,1.74-.71,2.18-1.91,2.72a20.12,20.12,0,0,1-5.31.39q-35.82,0-71.64,0C17.75,166.84,15.32,167.29,13.34,165.62Z" transform="translate(-0.74 -14.46)"/><path class="cls-2" d="M97.61,165.85l1.18-2c-.76-1.54.13-2.84.84-4,2.45-4.18,3.59-9,7.06-12.68l1.35-2.37c0-1.6.17-3.09,2.5-2.6.25,1.36,2.28,1.66,2.09,3.28a4.9,4.9,0,0,1-.71,3.45C101.45,169.64,91.38,190.57,81,211.35a7.12,7.12,0,0,1-2.31,3.23,3,3,0,0,1-2.86-.6c-1.4-1.45-1.13-3.08-.42-4.69,1-2.2,0-2.79-2.13-2.56-19.41.07-38.81.26-58.22.16-2.17,0-4.38.25-6.46-.66-2-.69-4.24.36-6.21-.67.75-2.09,2.58-1.07,3.85-1.08,15.64-.08,31.27,0,46.91-.07.72,0,1.52.29,2.31-.28.42-.1-.33-.8,0-.34.12.18,0,.22-.2.35-.75.53-1.57.24-2.34.24q-24.08,0-48.14,0c-1,0-2.23.54-2.95-.71.18-2,1.78-.95,2.59-1,16.21-.08,32.42,0,48.63-.11,1.27,0,3,1,3.85-1a16.44,16.44,0,0,1,0-12.82v-1.61a3.12,3.12,0,0,0-1.34-.69c-16.26-.24-32.51,0-48.76-.16-1.47,0-3.77,1.12-4.21-1.67,1.93-1.5,4.21-1,6.36-1,25.83-.11,51.67.12,77.49-.14A4,4,0,0,0,89,181.16c2.23-3.79,3.77-7.91,6-11.72C95.74,168.17,95.91,166.48,97.61,165.85Z" transform="translate(-0.74 -14.46)"/><path class="cls-3" d="M156.07,145.28c-1.13,3.84-4.75,6.56-5.1,10.74-1.43,4.15-4.72,4.59-8.6,4.3-3.13-.23-6.3,0-9.45-.06-5.06,0-5.38-.28-6.84-5a7.16,7.16,0,0,0-.86-2.22c-1.22-1.23-1.13-3.25-2.73-4.26.12-1.09.12-2.13-1.31-2.44-1.61-3.94-3.83-7.65-5-11.77-1.34-4.91-.45-6.11,4.69-6.15,11.79-.09,23.57,0,35.36,0,2.1,0,4.57-.32,5.33,2.53A28.35,28.35,0,0,1,156.07,145.28Z" transform="translate(-0.74 -14.46)"/><path class="cls-4" d="M26.2,243.1q.07-10.32.16-20.65c1.4-1.4,3.24-1.27,5-1.29,13-.18,26,.18,39.05.16a6.42,6.42,0,0,1,4,.84,4.62,4.62,0,0,1,1,3.7c-.43,5.82,1.19,11.76-1,17.49-7.64.68-15.29.17-22.94.27-7.11.1-14.22,0-21.33,0C28.82,243.61,27.39,244.1,26.2,243.1Z" transform="translate(-0.74 -14.46)"/><path class="cls-4" d="M110.54,142.17c-2.05-.24-1.31,2.05-2.5,2.6l-94.76,0-2.4-.1a.71.71,0,0,1,.27-1.19c3-.75,6-.34,9-.35,13.59,0,27.18,0,40.77,0-15.27,0-30.55,0-45.82,0-1.47,0-3,.35-4.36-.68.84-2.92,3.42-2.09,5.36-2.11,13.55-.12,27.11-.05,40.66-.06,7.93,0,7.91,0,8-7.57,0-2.24-.3-4.53.69-6.68a1.21,1.21,0,0,1,1.22-.67c1.29,2.36.4,4.9.57,7.36.16,2.27,0,4.57,0,5.9.17,1.48.84.64.41,1-1.08-4.65.32-9.42-.77-14.07-.35-1.23.41-1.83,1.39-2.32,3.35-1,6.8-.54,10.2-.52,9,0,18,.15,27.07.15,1.74,0,3.6-.31,5,1.1Q110.56,133,110.54,142.17Z" transform="translate(-0.74 -14.46)"/><path class="cls-5" d="M110.59,123.92H67.68A8.4,8.4,0,0,1,63.35,125c-7.55,0-15.1.07-22.66,0-1.34,0-2.81,0-3.58-1.44,0-4.25.3-8.53-.09-12.75-.35-3.89,1.29-4.52,4.85-4.5,23.69.13,47.38.05,71.06,0a.69.69,0,0,1-.16,1.16c-3,1.29-6.17.52-9.26.69-5.44.3-10.9-.48-16.3.4.06,4-.95,8.09.48,12,6.25,1.29,12.56.18,18.82.56,2.16.12,4.42-.42,6.44.8.55.64.72,1.27-.11,1.84Z" transform="translate(-0.74 -14.46)"/><path class="cls-6" d="M65.91,125.58c.73,4.1,0,8.24.38,12.33.26,3-.76,3.88-3.88,3.85-15.75-.15-31.5-.09-47.25,0-1.41,0-3-.66-4.26.64a1.23,1.23,0,0,1-.06,1.58,1.44,1.44,0,0,0,0,.77c-1.57-1.06-1-2.66-.9-4,.34-5.59-1-11.25.74-16.78,1.56,1.21,3.42.79,5.16.79,15.11,0,30.22,0,45.33,0C62.8,124.76,64.54,124.29,65.91,125.58Z" transform="translate(-0.74 -14.46)"/><path class="cls-6" d="M78.38,214.41q13.32-27,26.65-54.06c2.47-5,5.06-9.93,7.6-14.9,2.7-.76,4.53.8,6.38,2.28,1.12.9,2.23,1.82,3.34,2.73.33,1.41-.34,2.63-.93,3.8-7.89,15.91-15.59,31.92-23.61,47.77-3.14,6.19-5.77,12.62-9.17,18.69A11,11,0,0,1,78.38,214.41Z" transform="translate(-0.74 -14.46)"/><path class="cls-7" d="M74.29,222.53l-47.93-.08c-5.09,0-10.17-.12-15.25,0-2.15,0-2.91-.72-2.88-2.79.07-4.4-.06-8.8-.11-13.2-.2-.18-.25-.35-.16-.49s.18-.2.26-.2H75.15c.51,2.93-1.93,2.43-3.45,2.56a88.16,88.16,0,0,1-10.66.09c-3.38-.1-4.78,1.32-4.5,4.52a17.33,17.33,0,0,1,0,2.79c-.23,3,1.3,3.9,4.18,4,4.63.11,9.3-.63,13.88.55a1.52,1.52,0,0,1,.84,1.79A.84.84,0,0,1,74.29,222.53Z" transform="translate(-0.74 -14.46)"/><path class="cls-8" d="M1,181.81V168.55c1.66-1.27,3.64-1.05,5.54-1.06q25.32,0,50.65,0c1.91,0,3.86-.12,5.58,1A19.26,19.26,0,0,1,63,181.74a5.14,5.14,0,0,1-3.48.94c-19,0-38,.28-57-.16A3.74,3.74,0,0,1,1,181.81Z" transform="translate(-0.74 -14.46)"/><path class="cls-9" d="M56.83,188.79v12.82c-17,0-33.93-.15-50.88.11-4.26.07-5.36-1.12-5.19-5.12.32-7.8.09-7.8,8.07-7.8Z" transform="translate(-0.74 -14.46)"/><path class="cls-10" d="M184.82,244.08l-7.42,0a7.17,7.17,0,0,1-.78-1.19c-1.3-11.91-3.81-23.68-4.45-35.67.11-1.05.84-2.3-1-2.7-1.47-3.27-1.42-6.81-2-10.22a8.24,8.24,0,0,0,.74-5.66c.37-4-.77-7.92-1.25-11.87-.19-1.54,0-2.17,1.69-2.36,9.43-1.08,7.45-3,8.75,6q4,28.23,7.94,56.5c.22,1.56.17,3.15.24,4.73C186.45,242.46,185.61,243.25,184.82,244.08Z" transform="translate(-0.74 -14.46)"/><path class="cls-11" d="M125.25,24.44c4.33,6.15,2.44,17.48-3.8,22.74-5,4.21-12.29,5.54-16.81,2.37-5-3.49-8.48-8.29-8.82-14.51-.15-2.68-.89-5.53.59-8.15l.47.3c.86,2.91,3.24,4.62,5.46,6.44,3.11,1.42,6.24,2.61,9.76,1.55,4.72-.73,7.45-4,10-7.46C123,26.46,123.32,24.74,125.25,24.44Z" transform="translate(-0.74 -14.46)"/><path class="cls-12" d="M113,107.12a1.64,1.64,0,0,0-.07-.76,31.74,31.74,0,0,1-.09,17.5c0-.52.11-1,.16-1.55-7.28-.89-14.6-.13-21.9-.42-1.44-.06-3,.52-4.31-.5-1.46-4.47-1.14-9-.06-13.44,5.64-1,11.33-.15,17-.44C106.82,107.36,109.94,108,113,107.12Z" transform="translate(-0.74 -14.46)"/><path class="cls-13" d="M88.12,220.84c2.08-7.14,6.08-13.46,9.28-20.11,6.78-14.12,13.81-28.13,20.76-42.17,1.34-2.73,2.79-5.4,4.19-8.1,1.27-.48.23-1.14.14-1.73,2.1,0,2.26,1.81,3.05,3a4.2,4.2,0,0,1-.12,2.9c-3.42,8.27-7.91,16.07-11.64,24.2-.17,1.16-2.6,1.67-1,3.33a9.64,9.64,0,0,1-3.57,6.93c-1.09-1.2-1.47-.94-1.56.6a13.8,13.8,0,0,1-1,2.95c-2,4.2-2.73,9.09-5.17,12.78-2.8,4.26-4.79,8.82-7.29,13.17-.65,1.15-1.07,2.43-2.22,3.26a3.13,3.13,0,0,1-1.85.4A2.34,2.34,0,0,1,88.12,220.84Z" transform="translate(-0.74 -14.46)"/><path class="cls-14" d="M188,54.41c.26,10.43-5.88,16.44-16.32,16-.49-.06-.64,1.53-1.38.27-2.53-3.13-6.4-5.16-7.65-9.33-1.53-5.1-1.85-10,1.42-14.64,2.11.28,2.09,2.23,2.85,3.53a15.22,15.22,0,0,0,3.91,5c4.66,3.5,9.16,3.55,13.89.3C185.7,54.83,186.6,53.77,188,54.41Z" transform="translate(-0.74 -14.46)"/><path class="cls-15" d="M62.5,168.89q-29.13,0-58.26,0A29.54,29.54,0,0,1,1,168.55c-.13-1.8.18-3,2.58-2.86,3.24.17,6.5,0,9.75-.07l78.52.1c1.91,0,3.83.08,5.75.13-.56,1.26-1.12,2.52-1.67,3.78-10.42.78-20.85.4-31.29.21A7.27,7.27,0,0,1,62.5,168.89Z" transform="translate(-0.74 -14.46)"/><path class="cls-16" d="M161,132c.31-2.09-.64-2.69-2.76-2.68q-19.75.14-39.53,0c-2.11,0-2.64.72-2.34,2.58a30.14,30.14,0,0,0,2.94,9c.88,1.71,2.39,3.21,1.86,5.38-3.83-4.57-5.41-10-6.34-15.67-.4-2.44.54-3.58,3.37-3.57,6.41,0,6.28-.09,5.24-6.35-1.12-6.78-2-13.6-2.94-20.41l1.11-.22c.45,2.67.95,5.33,1.35,8,.82,5.53,1.68,11.06,2.32,16.62.21,1.8.69,2.39,2.68,2.48,10.9.46,10.89.53,10.83-10q-.06-12.6-.1-25.22a1,1,0,0,1,1.5,0c0,10.41.23,20.82,0,31.22-.08,3.49,1.07,4.52,4.36,4a12.87,12.87,0,0,1,2.06,0c9.7,0,9.69,0,11.74-9.35.25-1.16.67-2.29,1-3.44.73-.07,1.24,0,.77.91l-2.55,11.5c5.52.82,5.73,1.14,4.2,6.1C161.3,132.73,161.25,132.26,161,132Z" transform="translate(-0.74 -14.46)"/><path class="cls-17" d="M96.41,26.89c1.88-5.1,4.29-9.77,10.12-11.64,1.55,4.06,1.8,8.61,5.12,12a17.25,17.25,0,0,0,3.17,3.1c1.16.71,2.4,1.54,2,3.16-.39,1.44-1.89,1.36-3,1.75-.77.27-1.63.2-2.41.48a13.07,13.07,0,0,1-9.2-2c-2.16-1.89-5.35-3-5.5-6.48Z" transform="translate(-0.74 -14.46)"/><path class="cls-18" d="M140.2,91.93h-1.5c-7.75-2-11.58-8.63-9.12-15.69a2.49,2.49,0,0,1,2.08,1.09C136,82.92,143.38,82,147.33,77c.48-.61.95-1.34,2-1C151.71,83.28,148,89.83,140.2,91.93Z" transform="translate(-0.74 -14.46)"/><path class="cls-19" d="M108.12,15.07c7.41-2,12.57,1.08,16.48,6.93a2.84,2.84,0,0,1-.61,1c-1.57,1-2,2.68-2.6,4.3-1.59,4.1-4.6,4.62-7.74,1.48C109.82,25,107.65,20.53,108.12,15.07Z" transform="translate(-0.74 -14.46)"/><path class="cls-14" d="M177.41,40.4c7.17,1,9.13,6.3,10.63,12a18,18,0,0,1-1.4,2,7.26,7.26,0,0,1-6.47,2.84c-2.69-.35-3.56-2.79-4.1-5C175.06,48.18,173.41,44,177.41,40.4Z" transform="translate(-0.74 -14.46)"/><path class="cls-20" d="M165,45.07c2.38-4.21,6.25-5.34,10.85-5,.49,3.36-1.4,6.7,0,10.1.66,1.56.85,3.32,1.82,4.78.51.78,1.33,1.57.49,2.45s-2,.55-3.07.24C168.72,55.77,165.93,51.13,165,45.07Z" transform="translate(-0.74 -14.46)"/><path class="cls-21" d="M126.12,244.15l-50.16,0a.84.84,0,0,1,.21-1.24c2.4-1.24,5-.74,7.52-.78s5.12-.06,7.49-1.2a253.75,253.75,0,0,1,34.22-.07C127,241.66,128.23,242.57,126.12,244.15Z" transform="translate(-0.74 -14.46)"/><path class="cls-22" d="M65.91,125.58q-25.93,0-51.87,0c-1.32,0-3.26.74-3.32-1.71l26.39-.35,30.57.35c-.28.53-.55,1.07-.82,1.61h0Z" transform="translate(-0.74 -14.46)"/><path class="cls-23" d="M138.51,67.3c5.12-.13,8.53,2.26,10.11,7.09-.63,2.7-1.81,5.47-4.83,5.68-3.19.22-4-3.09-5.47-5.21a6.88,6.88,0,0,1-.77-3.86C137.56,69.69,137.53,68.37,138.51,67.3Z" transform="translate(-0.74 -14.46)"/><path class="cls-24" d="M130.17,74.43c.73-3.63,3.34-5.52,6.67-6.73,1.67,1.33.52,3.31,1.21,4.86.12,2.28,1.73,3.81,2.9,5.59.47.71,1.45,1.48.9,2.46s-1.91.86-3,.83C134.57,81.34,131.83,79.11,130.17,74.43Z" transform="translate(-0.74 -14.46)"/><path class="cls-25" d="M165,45.07c1.12,1,1,2.4,1.5,3.62,2,5,5.3,8.2,11.57,8.41-3.09-5.49-4.33-11.09-2.22-17l1.54.32c-2,4.07-1.61,8.11,0,12.21,1.86,4.74,4.56,5.36,8.44,1.89.76-.67.8-2.06,2.2-2.09v2c-2.56,1.91-5.23,4-8.36,4.51-5.14.86-9.07-1.88-12-5.67-1.52-2-2.38-4.38-3.54-6.59A1.81,1.81,0,0,1,165,45.07Z" transform="translate(-0.74 -14.46)"/><path class="cls-26" d="M124.61,154.39l.93-2.63a3.72,3.72,0,0,1,1.54,3.1c.38,4.27,3.07,4.77,6.68,4.35,2-.24,4.08,0,6.12-.05,4-.09,8.38,1.2,11.09-3.14-1.54,3.48-.31,6.69,1,9.91a1.61,1.61,0,0,1,0,1.22c-2.24.19-2.65-1.64-3.14-3-.88-2.45-2.57-3.25-5.05-3.11a22.85,22.85,0,0,1-3.7,0c-6.37-.67-11.69-.16-14,7.3a12,12,0,0,1-6.82,7.08,1,1,0,0,1-.89-.73c-.24-2.6,1.77-4,3.23-5.71C125.36,164.62,127.48,160,124.61,154.39Z" transform="translate(-0.74 -14.46)"/><path class="cls-27" d="M123.88,22.25a1.68,1.68,0,0,0,.72-.25c1,.61.51,1.61.65,2.44-2.19,2.81-3.34,6.22-6.45,8.58-2,1.54-3.89,2.71-6.4,2.95-.87.33-1.08,0-.94-.81.91-.24,1.85-.42,2.74-.73.71-.24,1.67-.11,1.93-1.15.37-1.4-.95-1.34-1.63-1.84-5.52-4.07-8.49-9.31-8-16.19a1.89,1.89,0,0,1,.58,0c1.7,1.61,1.46,4,2,5.91.94,3.09,2.86,5.36,4.85,7.67,2.52,2.91,4.62,2.66,6.71-.55C122,26.33,122.29,24,123.88,22.25Z" transform="translate(-0.74 -14.46)"/><path class="cls-28" d="M177.36,243.18c0,.3,0,.61,0,.92a302,302,0,0,1-30.54,0c-1-.92-2.49.06-3.52-.81a1.64,1.64,0,0,1,1.45-2.35,28.55,28.55,0,0,0,12.67-6.24,1.83,1.83,0,0,1,1.93-.24,2,2,0,0,1,.33,1.18c-.91,3.63-4.36,4.64-7.38,6.52,6.85.08,13.39,0,19.93,0C174,242.18,175.85,242,177.36,243.18Z" transform="translate(-0.74 -14.46)"/><path class="cls-29" d="M1,181.81a2.59,2.59,0,0,1,.68-.09c1.07,1,.76,2.27.55,3.49,1.18,1.44,2.81.76,4.22.76,15.35.06,30.71,0,46.06.06,1.46,0,3-.47,4.39.46a.93.93,0,0,1-.09.69q-25.08,0-50.16,0C-.46,187.17.93,187.6,1,181.81Z" transform="translate(-0.74 -14.46)"/><path class="cls-30" d="M1.76,203.67c1.35,1,2.91.46,4.36.46q23,.06,46,0h3.92v.62c-15.74,0-31.48,0-47.22,0-2.11,0-4.38-.7-6.38.65-1.1.65-1.21-.28-1.5-.9C1.21,204.25,1,203.58,1.76,203.67Z" transform="translate(-0.74 -14.46)"/><path class="cls-31" d="M130.17,74.43c2.57,4.13,5.53,7.57,11.37,6-1-2.71-3.9-4.51-3.81-7.67-.27-.76-.81-1.62.72-1.62.06.26.14.51.18.77.48,3.29,2.17,6.6,5.07,7.44,2.31.67,3.2-3.27,4.92-5,.69.31.74.89.68,1.51-5.14,6.36-9.69,7.68-15.4,4.85-2.12-1-2.56-3.31-4.32-4.5A1.46,1.46,0,0,1,130.17,74.43Z" transform="translate(-0.74 -14.46)"/><path class="cls-17" d="M123.88,22.25c.1,3-2,5.14-3.39,7.5-1.1,1.84-2.8,2.3-4.84,1-5.71-3.71-7.76-9.28-8.54-15.52l1-.14c1.86,4.35,1.84,9.49,6.07,12.87,1.27,1,2.21,2.62,4,2a3.9,3.9,0,0,0,2.53-3.71C120.65,23.86,122,23,123.88,22.25Z" transform="translate(-0.74 -14.46)"/><path class="cls-32" d="M26.2,243.1l47.92.12c.29.18.4.37.33.58s-.15.32-.24.32l-47.86,0a.78.78,0,0,1-.23-.84Z" transform="translate(-0.74 -14.46)"/><path class="cls-33" d="M74.21,244.12l-.09-.9q.09-10.33.17-20.69l.8-.33a1.29,1.29,0,0,1,1.35.6c1,6.84,1.73,13.67-.42,20.44l-.06.88Z" transform="translate(-0.74 -14.46)"/><path class="cls-34" d="M117.11,74.4l-3.39-21.5,1.32-.19,2.82,20C117.42,73.2,117.79,74,117.11,74.4Z" transform="translate(-0.74 -14.46)"/><path class="cls-35" d="M151.83,167.16c0-.41.07-.82.11-1.23,4,6.13,10.74,9.95,14.36,16.37a1.41,1.41,0,0,1-1.08.44,96.45,96.45,0,0,1-13.44-13.44A1.47,1.47,0,0,1,151.83,167.16Z" transform="translate(-0.74 -14.46)"/><path class="cls-36" d="M170.34,70.63l1.38-.27q-2.57,9.93-5.12,19.88L165.46,90Z" transform="translate(-0.74 -14.46)"/><path class="cls-37" d="M161,107.13Q162.82,100,164.61,93l1.1.22a79,79,0,0,1-3.9,14.9C161.31,107.94,161.27,107.46,161,107.13Z" transform="translate(-0.74 -14.46)"/><path class="cls-38" d="M119.39,82.16l1.83,14.29-1.27.13-2-14.25Z" transform="translate(-0.74 -14.46)"/><path class="cls-36" d="M165.14,182.37l1.16-.07,3.6,6.36a9,9,0,0,0,1.06,2c1.47,1.58-.22,2-1,2.84-.39.11-.92.19-1.06-.19C167.65,189.7,164.54,186.64,165.14,182.37Z" transform="translate(-0.74 -14.46)"/><path class="cls-39" d="M184.82,244.08c-.2-1.78.56-2.64,2.45-2.42,0,2.28,1.83,1.51,3,1.54,3.49.09,7,0,10.47.88Z" transform="translate(-0.74 -14.46)"/><path class="cls-40" d="M161,132l.77.89c-.77,4.64-1.57,9.26-5.71,12.44C157.62,140.81,160.5,136.8,161,132Z" transform="translate(-0.74 -14.46)"/><path class="cls-41" d="M143.41,243.14c1.09.51,2.6-.44,3.45.92a126,126,0,0,1-16.49,0c-1-.74-1.87-1.52-.57-2.73C134.31,242.18,139,241.45,143.41,243.14Z" transform="translate(-0.74 -14.46)"/><path class="cls-42" d="M26.12,243.25c.08.28.15.56.23.84H5.68v-.84Z" transform="translate(-0.74 -14.46)"/><path class="cls-43" d="M129.57,241.48c.27.86.53,1.73.8,2.59a7.41,7.41,0,0,1-4.25.08c.6-.83,1-1.66.07-2.53a1.29,1.29,0,0,1-.06-1.65C127.66,239.64,129,239.68,129.57,241.48Z" transform="translate(-0.74 -14.46)"/><path class="cls-44" d="M161,107.13l.78.94a20.92,20.92,0,0,1-1.68,7.17l-.77-.91Z" transform="translate(-0.74 -14.46)"/><path class="cls-45" d="M117.11,74.4l.75-1.69c-.12,2.36,1.35,4.58.6,7.33C116.69,78.25,117.37,76.21,117.11,74.4Z" transform="translate(-0.74 -14.46)"/><path class="cls-46" d="M138.45,71.16l-.72,1.62c-1.23-1.54-.7-3.37-.89-5.08a1.48,1.48,0,0,1,1.67-.4Z" transform="translate(-0.74 -14.46)"/><path class="cls-9" d="M1,204.57c.43.4.65,1.15,1.5.9l5.75.27a2.3,2.3,0,0,1-.1.69c-1.61,0-3.21,0-4.82,0C2,206.4.81,206.3,1,204.57Z" transform="translate(-0.74 -14.46)"/><path class="cls-6" d="M106.69,147.14q-4,8.36-7.9,16.72c-6,0-12.06-.08-18.09,0-2.29.05-3.21-.66-3.13-2.95.14-3.72.13-7.45,0-11.17-.07-2.11.76-2.8,2.86-2.77C89.19,147.11,97.94,147.1,106.69,147.14Z" transform="translate(-0.74 -14.46)"/><path class="cls-47" d="M64.55,168.86c9,0,18.07,0,27.11.09,1.43,0,3-.57,4.28.68q-3.06,5.94-6.13,11.86a5,5,0,0,1-2,1c-7.63.15-15.27.58-22.9-.23a2.42,2.42,0,0,1-1.65-2.53,33.7,33.7,0,0,0,0-9.14A1.65,1.65,0,0,1,64.55,168.86Z" transform="translate(-0.74 -14.46)"/><path class="cls-8" d="M75.06,220.89c-5.46,0-11,.23-16.37-.21-7.09-.59-2.09-6-3.21-9-.78-2.1-.74-4.82,3.35-4.53,4.34.31,8.73.09,13.09.06,1.28,0,2.88.45,3.23-1.51,1.91-.33,3.16-.39,2,2.2-.77,1.66-2.73,3.37-1,5.53C76.25,216,77,218.64,75.06,220.89Z" transform="translate(-0.74 -14.46)"/><path class="cls-29" d="M64.55,168.86a45.05,45.05,0,0,0-.17,12.65,134.24,134.24,0,0,0,23.89.13l1.54-.15-1.17,2.64a11.32,11.32,0,0,1-3.67.24q-39.28,0-78.57,0c-1.39,0-4,1-4-1.2s2.69-1.07,4.13-1.08c17.28-.08,34.55,0,51.83-.08,1.43,0,3,.61,4.31-.56l-.21-12.52Z" transform="translate(-0.74 -14.46)"/><path class="cls-15" d="M62.71,181.41c-1.21,1.66-3,.93-4.56.94-17,.05-34,0-51,.05-1.37,0-2.9-.4-4.11.51l.06,1.22H88.64c-1.47,1.08-3.18.56-4.77.57q-40.68.08-81.37.08c-.31.46-.58.44-.82-.06,0-1,0-2,0-3l49.06-.23C54.74,181.48,58.73,181.44,62.71,181.41Z" transform="translate(-0.74 -14.46)"/><path class="cls-48" d="M75.06,220.89c.54-2.44-1-5.19,1.11-7.42l2.21.94a33.6,33.6,0,0,0,9.74,6.43l2,1c-4.62,3.2-9.45,2.05-14.29.63l-.76-.32Z" transform="translate(-0.74 -14.46)"/><path class="cls-49" d="M1.68,184.72l.82.06c1.22,1.3,2.83.77,4.26.77,15.33,0,30.66,0,46,.06,1.41,0,3-.62,4.17.88-17.25,0-34.5,0-51.74-.13C4,186.35,1.53,187.83,1.68,184.72Z" transform="translate(-0.74 -14.46)"/><path class="cls-50" d="M10.84,143.94l.06-1.58H66.27v1.58Z" transform="translate(-0.74 -14.46)"/><path class="cls-22" d="M66.86,125.53c1.83,5,.3,10.06,0,15.1v-15.1Z" transform="translate(-0.74 -14.46)"/><path class="cls-51" d="M113,107.12c-.73,1.52-2.15.84-3.25.85-7.68,0-15.35,0-23,0-.13,0-.3,0-.39-.1a3.09,3.09,0,0,1-.4-.48c1-.08,2.1-.22,3.15-.23C97.06,107.12,105,107.13,113,107.12Z" transform="translate(-0.74 -14.46)"/><path class="cls-52" d="M86.79,121.39c7.68,0,15.36,0,23,0,1.08,0,2.53-.72,3.17.92l-26,0c-.1,0-.29-.12-.3-.19A4,4,0,0,1,86.79,121.39Z" transform="translate(-0.74 -14.46)"/><path class="cls-3" d="M129.57,241.48c-.88-1-2.18-.95-3.29-1.36-2.22-2.81-1-6.08-1.29-9.15a29.88,29.88,0,0,1,0-4.73c.06-2.91-2.24-2.46-4-2.62-3.78-.31-7.64.58-11.35-.74-2.86-2-3.06-5.29-3.54-8.23-1.23-7.51-1.66-15,.84-22.45a6.69,6.69,0,0,1,2-3.39c.65-2.59,3.12-4.41,3.22-7.23,2.06-2.34,2.75-6,6.64-6.58,4.06-3.51,7.87-7.23,9-12.65.31-1.44.82-2.11,2.35-2.11q8.44,0,16.88,0c1.46,0,2.28.42,2.35,2a7.23,7.23,0,0,0,2.41,4.91c.53,3.08,3.28,4.81,5.26,6.58,3,2.68,5.35,5.77,8,8.63L170,193.54q.81,5.64,1.61,11.28c1.42,5.61-.58,10.79-2.16,16a28.42,28.42,0,0,1-2.48,5.38,15.84,15.84,0,0,1-1.37,2.73c-2.15,1.83-3.12,4.93-6.34,5.64-4.38,3.53-9,6.53-14.82,7.42-.39.06-.69.74-1,1.14C138.7,243.36,134,243.76,129.57,241.48Z" transform="translate(-0.74 -14.46)"/><path class="cls-3" d="M165,229c.34-1,.68-1.89,1-2.84,3.83-4.9,4.86-10.69,5.61-16.58.2-1.56.19-1.56,1.48-2.74,1.25,9.61,2.52,19.22,3.72,28.84.31,2.5.37,5,.54,7.54H149.07c3.61-2.61,7.78-3.85,10.29-7.43C161.2,233.46,163.1,231.22,165,229Z" transform="translate(-0.74 -14.46)"/><path class="cls-53" d="M173.1,206.8c-1.62,5.53-1.8,11.43-4.59,16.66-.6,1.13-.72,2.61-2.5,2.66,3.4-6.72,4.89-13.91,5.6-21.3C174.21,204,173.06,205.81,173.1,206.8Z" transform="translate(-0.74 -14.46)"/><path class="cls-54" d="M111.46,35.16l.94.81c-4,1.44-7.55.26-11-1.69a2,2,0,0,1,.88-1.54C104.79,35.55,108.27,34.85,111.46,35.16Z" transform="translate(-0.74 -14.46)"/><path class="cls-55" d="M102.3,32.74a1.41,1.41,0,0,1-.88,1.54c-1.23-1.12-2.47-2.23-3.69-3.37s-2.09-2.1-1-3.71A12.08,12.08,0,0,0,102.3,32.74Z" transform="translate(-0.74 -14.46)"/><path class="cls-4" d="M109.77,222.29c4.52,0,9,.18,13.55,0,2.44-.07,3.26.79,2.78,3-1.36,1.8-3.41,1.49-5.28,1.51-6.72.08-13.44,0-20.16,0-9.33,0-8.5-.46-8.61,8.13,0,2.22.48,4.58-1.24,6.51-.21,1.9-1.69,1.72-3,1.72H76q-.09-10.35-.17-20.72c4.74-.59,9.57.59,14.29-.64.42,0,.84,0,1.26-.06,5.41-1,10.85-.6,16.29-.34C108.41,221.69,109.07,222,109.77,222.29Z" transform="translate(-0.74 -14.46)"/><path class="cls-56" d="M108.14,222.32c-5.58-.2-11.19.75-16.74-.5,2.43-5,4.37-10.27,7.44-14.85s4.34-10,6.86-14.83c1.63,0,1.25,1.11,1.06,2a47.91,47.91,0,0,0,1.65,27.51C108.49,221.8,108.28,222.08,108.14,222.32Z" transform="translate(-0.74 -14.46)"/><path class="cls-57" d="M124.61,154.39c3,2.51,3.11,7,.79,11.27-1.73,3.2-4.81,5.24-6.71,8.23-2.1,1.76-3.11,4.67-6.12,5.47Q118.6,166.88,124.61,154.39Z" transform="translate(-0.74 -14.46)"/><path class="cls-58" d="M108.14,222.32c-3.62-9.2-4.72-18.56-1.9-28.18.19-.65.54-1.57-.54-2,.53-1.21,1-2.45,1.61-3.62.8-1.54,1,.51,1.64.29-3.59,11.25-4.31,22.43.82,33.48Z" transform="translate(-0.74 -14.46)"/><path class="cls-35" d="M112.57,179.36c2.14-1.72,3.52-4.23,6.12-5.47l.12,1.11c-2.89,1.55-3.59,5.18-6.64,6.58-.45.1-1.17.79-1.32.14C110.6,180.55,111.71,180,112.57,179.36Z" transform="translate(-0.74 -14.46)"/><path class="cls-6" d="M90.81,241.53c-.08-4.25,0-8.5-.28-12.74-.15-2.66.87-3.4,3.53-3.38,10.68.09,21.36,0,32-.06l.18,14.77-.09,1.5Z" transform="translate(-0.74 -14.46)"/><path class="cls-59" d="M165,229c-1.48,2.57-2.81,5.26-5.62,6.79,0-.39-.07-.78-.1-1.17C161.21,232.74,162.17,230,165,229Z" transform="translate(-0.74 -14.46)"/><path class="cls-15" d="M88.27,181.64c-5.55,1.65-11.24.47-16.87.67-2.31.08-4.87,1-7-.8Z" transform="translate(-0.74 -14.46)"/></svg>