<svg id="Layer_1" data-name="Layer 1" xmlns="http://www.w3.org/2000/svg" viewBox="0 0 48.94 48.94"><defs><style>.cls-1{fill:#252c3a;}</style></defs><g id="Shape_1" data-name="Shape 1"><path class="cls-1" d="M25.81,19.5a6.36,6.36,0,1,0,6.3,6.36A6.34,6.34,0,0,0,25.81,19.5Zm0,10.31a4,4,0,1,1,3.92-3.95A3.93,3.93,0,0,1,25.81,29.81Zm23-14.94c.46-3.44-.07-6.36-1.54-8.52a4.34,4.34,0,0,0,.37-1.76,4.23,4.23,0,0,0-7.92-2.11c-4-.2-8.88,1.28-13.94,4.23C17.17,1.68,9.35,1.07,5.3,5.16a10.17,10.17,0,0,0-2.67,7.4,4.28,4.28,0,0,0,1.67,8.2h.07a38.82,38.82,0,0,0,2.46,5.1c-5,8.71-5.59,16.6-1.53,20.69a9.94,9.94,0,0,0,7.31,2.7c3.8,0,8.38-1.43,13.2-4.24,4.83,2.81,9.4,4.24,13.2,4.24a10,10,0,0,0,7.32-2.7c4.05-4.09,3.45-12-1.54-20.69A31.24,31.24,0,0,0,48.84,14.87ZM43.44,2.72a1.87,1.87,0,1,1-1.86,1.87A1.86,1.86,0,0,1,43.44,2.72ZM39.21,4.87a4.25,4.25,0,0,0,4.23,4,4.16,4.16,0,0,0,2.21-.63,10.35,10.35,0,0,1,.83,6.32,27.64,27.64,0,0,1-3.13,9,53.47,53.47,0,0,0-6.86-8.43,53.55,53.55,0,0,0-8.36-6.93C32.2,6,36,4.82,39.21,4.87ZM4.3,18.36a1.87,1.87,0,1,1,1.85-1.87A1.86,1.86,0,0,1,4.3,18.36ZM6.65,20A4.28,4.28,0,0,0,5,12.28,7.71,7.71,0,0,1,7,6.87c3-3.08,9.41-2.54,16.51,1.29a53.55,53.55,0,0,0-8.36,6.93,54,54,0,0,0-6.86,8.43A38.33,38.33,0,0,1,6.65,20ZM7,44.85C3.93,41.78,4.47,35.36,8.27,28.2a54.61,54.61,0,0,0,6.86,8.43,54.11,54.11,0,0,0,8.36,6.93C16.39,47.39,10,47.93,7,44.85Zm9.84-9.92a50.8,50.8,0,0,1-7.21-9.07A53.1,53.1,0,0,1,25.81,9.51a50.72,50.72,0,0,1,9,7.28A50.36,50.36,0,0,1,42,25.86a50.71,50.71,0,0,1-7.21,9.07,50.21,50.21,0,0,1-9,7.27A50.21,50.21,0,0,1,16.82,34.93Zm27.82,9.92c-3,3.08-9.41,2.54-16.51-1.29a54.11,54.11,0,0,0,8.36-6.93,53.47,53.47,0,0,0,6.86-8.43C47.15,35.36,47.69,41.78,44.64,44.85Z" transform="translate(-0.06 -0.31)"/></g></svg>